<?xml version="1.0" encoding="UTF-8" standalone="no"?>
<!-- Created with Inkscape (http://www.inkscape.org/) -->

<svg
   version="1.1"
   id="svg1"
   width="585.82666"
   height="226.772"
   viewBox="0 0 585.82666 226.772"
   sodipodi:docname="draft logo (2).pdf"
   xmlns:inkscape="http://www.inkscape.org/namespaces/inkscape"
   xmlns:sodipodi="http://sodipodi.sourceforge.net/DTD/sodipodi-0.dtd"
   xmlns="http://www.w3.org/2000/svg"
   xmlns:svg="http://www.w3.org/2000/svg">
  <defs
     id="defs1" />
  <sodipodi:namedview
     id="namedview1"
     pagecolor="#ffffff"
     bordercolor="#000000"
     borderopacity="0.25"
     inkscape:showpageshadow="2"
     inkscape:pageopacity="0.0"
     inkscape:pagecheckerboard="0"
     inkscape:deskcolor="#d1d1d1" />
  <g
     id="g1"
     inkscape:groupmode="layer"
     inkscape:label="1">
    <path
       id="path1"
       d="M -99.21382,-99.21382 V 99.21382 H 425.20213 V -99.21382 Z"
       style="fill:#ffffff;fill-opacity:1;fill-rule:nonzero;stroke:none"
       transform="matrix(1.0666667,0,0,-1.0666667,120.94827,115.2768)" />
    <path
       id="path2"
       d="m 85.04042,0 c 0,-46.96715 -38.0733,-85.04045 -85.04044,-85.04045 -46.96716,0 -85.04046,38.0733 -85.04046,85.04045 0,46.96715 38.0733,85.04045 85.04046,85.04045 30.37842,0 58.45815,-16.21165 73.64737,-42.52023"
       style="fill:none;stroke:#000000;stroke-width:8.50403;stroke-linecap:butt;stroke-linejoin:miter;stroke-miterlimit:10;stroke-dasharray:none;stroke-opacity:1"
       transform="matrix(1.0666667,0,0,-1.0666667,120.94827,115.2768)" />
    <path
       id="path3"
       d="M 85.04042,-8.50412 H 28.3468"
       style="fill:none;stroke:#000000;stroke-width:8.50403;stroke-linecap:butt;stroke-linejoin:miter;stroke-miterlimit:10;stroke-dasharray:none;stroke-opacity:1"
       transform="matrix(1.0666667,0,0,-1.0666667,120.94827,115.2768)" />
    <path
       id="path4"
       d="M 31.18166,43.93764 45.35506,0 52.44176,18.42523 59.52846,0 73.70186,45.35506"
       style="fill:none;stroke:#000000;stroke-width:7.08669;stroke-linecap:butt;stroke-linejoin:miter;stroke-miterlimit:10;stroke-dasharray:none;stroke-opacity:1"
       transform="matrix(1.0666667,0,0,-1.0666667,120.94827,115.2768)" />
    <path
       id="path5"
       d="M 79.37114,-4.25183 V 4.25183 H 90.7097 v -8.50366 z"
       style="fill:#ffffff;fill-opacity:1;fill-rule:nonzero;stroke:none"
       transform="matrix(1.0666667,0,0,-1.0666667,120.94827,115.2768)" />
    <g
       id="g5"
       aria-label="InternationalWorkshopon&#10;Graph-TheoreticConcepts&#10;inComputerScience&#10;1"
       transform="matrix(1.3333333,0,0,1.3333333,225.10267,83.686667)">
      <path
         id="path6"
         d="M 4.2413594,-17.2025 H 2.1554219 V 6.25e-4 h 2.0859375 z m 12.3105466,9.9609375 c 0,-1.5585937 -0.375,-3.6093745 -3.175781,-3.6093745 -1.582031,0 -2.625,0.808593 -3.316406,1.6523433 V -10.73375 H 8.2550312 V 6.25e-4 h 1.8749998 v -6 c 0,-1.5585937 0.597656,-3.3398437 2.285156,-3.3398437 2.179688,0 2.25,1.453125 2.25,2.296875 V 6.25e-4 h 1.886719 z m 5.994141,-1.9804687 h 3.222656 v -1.4296878 h -3.222656 v -3.058593 h -1.757813 v 3.058593 h -1.957031 v 1.4296878 h 1.910156 V -2.9525 c 0,1.4179688 0.316407,3.15234375 1.957032,3.15234375 1.242187,0 2.378906,-0.3515625 3.46875,-0.9140625 L 25.768703,-2.1790625 c -0.597656,0.515625 -1.3125,0.8203125 -2.085937,0.8203125 -1.089844,0 -1.136719,-1.3945312 -1.136719,-2.015625 z m 13.97168,3.796875 c 0,-0.8203125 -0.04687,-2.4023438 -0.84375,-3.7148438 -0.867188,-1.417969 -2.285157,-1.816406 -3.339844,-1.816406 -2.578125,0 -4.769531,2.425781 -4.769531,5.5781248 0,3.0703125 2.261718,5.57812495 5.109375,5.57812495 1.113281,0 2.484375,-0.328125 3.714843,-1.21874995 0,-0.09375 -0.04687,-0.6445313 -0.07031,-0.6679688 0,-0.046875 -0.07031,-0.8203125 -0.07031,-0.9140625 -1.195312,0.9609375 -2.554687,1.2890625 -3.550781,1.2890625 -1.582031,0 -3.292969,-1.3359375 -3.363281,-4.1132812 z M 29.533352,-6.79625 c 0.316406,-1.359375 1.40625,-2.6484375 2.800781,-2.6484375 0.363281,0 2.097656,0.046875 2.542969,2.6484375 z m 11.34375,1.5234375 c 0,-2.3320312 1.710937,-3.9023437 3.890625,-3.9492187 v -1.6289058 c -1.582032,0.02344 -3.070313,0.808593 -3.960938,2.0976558 V -10.73375 H 39.048977 V 6.25e-4 h 1.828125 z m 14.384765,-1.96875 c 0,-1.5585937 -0.375,-3.6093745 -3.175781,-3.6093745 -1.582031,0 -2.625,0.808593 -3.316406,1.6523433 V -10.73375 H 46.964992 V 6.25e-4 h 1.875 v -6 c 0,-1.5585937 0.597656,-3.3398437 2.285156,-3.3398437 2.179688,0 2.25,1.453125 2.25,2.296875 V 6.25e-4 h 1.886719 z m 11.173828,0.2226563 c 0,-2.3203125 -1.652343,-3.9374998 -3.890625,-3.9374998 -1.089843,0 -2.273437,0.199219 -3.644531,0.9960935 l 0.152344,1.6289063 c 0.621094,-0.4453125 1.6875,-1.1601563 3.46875,-1.1601563 1.265625,0 2.039062,0.9609375 2.039062,2.5078125 v 0.9375 c -3.972656,0.1289063 -6.445312,1.265625 -6.445312,3.2226563 0,1.0195312 0.609375,3.02343745 2.671875,3.02343745 0.375,0 2.378906,-0.046875 3.820312,-1.11328125 V 6.25e-4 h 1.828125 z m -1.875,3.75 c 0,0.4453125 0,1.0429687 -0.75,1.4882812 -0.644531,0.421875 -1.464843,0.46875 -1.804687,0.46875 -1.242188,0 -2.085938,-0.6914062 -2.085938,-1.5585937 0,-1.734375 3.867188,-1.9101563 4.640625,-1.9335938 z m 7.872071,-5.953125 h 3.222656 v -1.4296878 h -3.222656 v -3.058593 h -1.757813 v 3.058593 h -1.957031 v 1.4296878 h 1.910156 V -2.9525 c 0,1.4179688 0.316406,3.15234375 1.957031,3.15234375 1.242188,0 2.378907,-0.3515625 3.46875,-0.9140625 L 75.655422,-2.1790625 c -0.597656,0.515625 -1.3125,0.8203125 -2.085938,0.8203125 -1.089843,0 -1.136718,-1.3945312 -1.136718,-2.015625 z m 8.077148,-7.0898438 h -2.085937 v 2.085938 h 2.085937 z m -0.128906,5.660156 H 78.552883 V 6.25e-4 h 1.828125 z m 12.808594,5.3437503 c 0,-3.1640625 -2.355469,-5.6484373 -5.132813,-5.6484373 -2.847656,0 -5.15625,2.5546873 -5.15625,5.6484373 0,3.1523437 2.378906,5.50781245 5.132813,5.50781245 2.824218,0 5.15625,-2.42578125 5.15625,-5.50781245 z M 88.056789,-1.35875 c -1.757812,0 -3.269531,-1.4414062 -3.269531,-4.1484375 0,-2.8710937 1.757812,-3.9375 3.246094,-3.9375 1.605468,0 3.269531,1.171875 3.269531,3.9375 0,2.8007813 -1.605469,4.1484375 -3.246094,4.1484375 z m 15.966801,-5.8828125 c 0,-1.5585937 -0.375,-3.6093745 -3.17579,-3.6093745 -1.582027,0 -2.624995,0.808593 -3.316402,1.6523433 V -10.73375 H 95.726711 V 6.25e-4 h 1.875 v -6 c 0,-1.5585937 0.597656,-3.3398437 2.285156,-3.3398437 2.179683,0 2.250003,1.453125 2.250003,2.296875 V 6.25e-4 h 1.88672 z m 11.17382,0.2226563 c 0,-2.3203125 -1.65234,-3.9374998 -3.89062,-3.9374998 -1.08984,0 -2.27344,0.199219 -3.64453,0.9960935 l 0.15234,1.6289063 c 0.6211,-0.4453125 1.6875,-1.1601563 3.46875,-1.1601563 1.26563,0 2.03906,0.9609375 2.03906,2.5078125 v 0.9375 c -3.97265,0.1289063 -6.44531,1.265625 -6.44531,3.2226563 0,1.0195312 0.60938,3.02343745 2.67188,3.02343745 0.375,0 2.3789,-0.046875 3.82031,-1.11328125 V 6.25e-4 h 1.82812 z m -1.875,3.75 c 0,0.4453125 0,1.0429687 -0.75,1.4882812 -0.64453,0.421875 -1.46484,0.46875 -1.80468,0.46875 -1.24219,0 -2.08594,-0.6914062 -2.08594,-1.5585937 0,-1.734375 3.86719,-1.9101563 4.64062,-1.9335938 z M 120.72573,-17.2025 h -1.82812 V 6.25e-4 h 1.82812 z m 31.21582,0 h -1.875 l -2.08593,7.7109375 c -0.32813,1.2421875 -0.6211,2.4726563 -0.91407,3.7148438 -0.44531,1.8398437 -0.77343,3.1289062 -0.82031,3.7734375 h -0.0234 c -0.0586,-0.6679688 -0.375,-2.0859375 -0.77343,-3.6679688 -0.29297,-1.3125 -0.6211,-2.6367187 -0.96094,-3.9257812 l -2.0625,-7.6054688 h -2.08594 l -1.95703,7.21875 -0.98437,3.9375 c -0.75,3.1171875 -0.77344,3.5625 -0.82032,4.0664063 h -0.0234 c 0,-0.1523438 -0.10547,-0.9726563 -0.79688,-3.8671875 -0.33984,-1.4414063 -0.69141,-2.90625 -1.06641,-4.2890628 L 132.7814,-17.2025 h -2.13281 l 4.71093,17.203125 h 2.0625 l 1.95703,-7.1601562 0.9961,-3.9492188 c 0.66797,-2.765625 0.80859,-3.46875 0.86719,-4.078125 h 0.0234 c 0,0.09375 0.22266,1.652344 1.1836,5.2734375 l 2.625,9.9140625 h 2.15625 z m 10.65821,11.8945313 c 0,-3.1640625 -2.35547,-5.6484373 -5.13281,-5.6484373 -2.84766,0 -5.15625,2.5546873 -5.15625,5.6484373 0,3.1523437 2.3789,5.50781245 5.13281,5.50781245 2.82422,0 5.15625,-2.42578125 5.15625,-5.50781245 z m -5.13281,3.9492187 c -1.75782,0 -3.26954,-1.4414062 -3.26954,-4.1484375 0,-2.8710937 1.75782,-3.9375 3.2461,-3.9375 1.60547,0 3.26953,1.171875 3.26953,3.9375 0,2.8007813 -1.60547,4.1484375 -3.24609,4.1484375 z m 8.87695,-3.9140625 c 0,-2.3320312 1.71094,-3.9023437 3.89062,-3.9492187 v -1.6289058 c -1.58203,0.02344 -3.07031,0.808593 -3.96093,2.0976558 V -10.73375 h -1.75782 V 6.25e-4 h 1.82813 z m 10.81055,-1.2890625 3.84375,-4.089844 h -2.37891 l -4.33594,4.605469 V -17.2025 h -1.82812 V 6.25e-4 h 1.80468 v -3.46875 l 1.66407,-1.7578125 3.49218,5.2265625 h 2.10938 z m 12.76464,-3.644531 c -1.46484,-0.703125 -2.60156,-0.75 -3.33984,-0.75 -1.76953,0 -3.86719,0.621094 -3.86719,3.128906 0,2.4960938 2.71875,3.046875 3.46875,3.1875 1.13672,0.234375 2.40235,0.4804688 2.40235,1.7109375 0,1.5703125 -1.78125,1.5703125 -2.10938,1.5703125 -0.99609,0 -2.35547,-0.28125 -3.59766,-1.171875 l -0.29296,1.6640625 c 1.41796,0.8203125 2.77734,1.06640625 3.91406,1.06640625 3.04687,0 3.82031,-1.86328125 3.82031,-3.26953125 0,-1.21875 -0.69141,-2.0390625 -1.17187,-2.4023437 -0.8086,-0.6445313 -1.11329,-0.7265625 -3.14063,-1.1484375 -0.35156,-0.046875 -1.55859,-0.3164063 -1.55859,-1.4296875 0,-1.4179688 1.55859,-1.4179688 1.89843,-1.4179688 1.61719,0 2.61329,0.4921875 3.28125,0.8671875 z m 11.0918,2.9648435 c 0,-1.5585937 -0.375,-3.6093745 -3.17578,-3.6093745 -1.55859,0 -2.57813,0.761718 -3.29297,1.6054683 V -17.2025 h -1.82812 V 6.25e-4 h 1.875 v -6 c 0,-1.5585937 0.59765,-3.3398437 2.28515,-3.3398437 2.17969,0 2.25,1.453125 2.25,2.296875 V 6.25e-4 h 1.88672 z m 12.81445,1.9335938 c 0,-3.1640625 -2.35547,-5.6484373 -5.13281,-5.6484373 -2.84766,0 -5.15625,2.5546873 -5.15625,5.6484373 0,3.1523437 2.37891,5.50781245 5.13281,5.50781245 2.82422,0 5.15625,-2.42578125 5.15625,-5.50781245 z m -5.13281,3.9492187 c -1.75781,0 -3.26953,-1.4414062 -3.26953,-4.1484375 0,-2.8710937 1.75781,-3.9375 3.24609,-3.9375 1.60547,0 3.26953,1.171875 3.26953,3.9375 0,2.8007813 -1.60546,4.1484375 -3.24609,4.1484375 z m 9.56836,0.2460938 c 0.82031,0.79687495 1.93359,1.31249995 3.12891,1.31249995 2.30859,0 4.28906,-2.37890625 4.28906,-5.55468745 0,-2.9179688 -1.48828,-5.4960933 -3.62109,-5.4960933 -1.24219,0 -2.73047,0.445312 -3.84375,1.335937 v -1.136719 h -1.82813 V 4.82875 h 1.875 z m 0,-6.9375 c 0.19922,-0.3046875 1.04297,-1.2421875 2.41406,-1.2421875 1.73438,0 3.11719,1.78125 3.11719,3.9375 0,2.4609375 -1.6875,4.0429687 -3.35156,4.0429687 -0.49219,0 -1.00781,-0.1289062 -1.51172,-0.5507812 -0.66797,-0.5859375 -0.66797,-0.9609375 -0.66797,-1.3125 z m 26.99707,2.7421875 c 0,-3.1640625 -2.35547,-5.6484373 -5.13281,-5.6484373 -2.84766,0 -5.15625,2.5546873 -5.15625,5.6484373 0,3.1523437 2.3789,5.50781245 5.13281,5.50781245 2.82422,0 5.15625,-2.42578125 5.15625,-5.50781245 z m -5.13281,3.9492187 c -1.75781,0 -3.26953,-1.4414062 -3.26953,-4.1484375 0,-2.8710937 1.75781,-3.9375 3.24609,-3.9375 1.60547,0 3.26953,1.171875 3.26953,3.9375 0,2.8007813 -1.60547,4.1484375 -3.24609,4.1484375 z m 15.9668,-5.8828125 c 0,-1.5585937 -0.375,-3.6093745 -3.17579,-3.6093745 -1.58203,0 -2.625,0.808593 -3.3164,1.6523433 V -10.73375 h -1.80469 V 6.25e-4 h 1.875 v -6 c 0,-1.5585937 0.59766,-3.3398437 2.28516,-3.3398437 2.17968,0 2.25,1.453125 2.25,2.296875 V 6.25e-4 h 1.88672 z M 13.979641,22.600234 H 9.0460469 v 1.535157 h 3.0468751 v 3.867187 c -0.960938,0.28125 -1.957031,0.46875 -2.9531251,0.46875 -3.46875,0 -5.5195313,-3.714844 -5.5195313,-7.230469 0,-3.492187 2.15625,-7.160156 5.5195313,-7.160156 1.9101561,0 2.9765621,0.585938 4.2890621,1.582031 l 0.328125,-1.980468 c -1.640625,-0.84375 -2.648437,-1.195313 -4.5117184,-1.195313 -4.8046875,0 -7.7109375,4.371094 -7.7109375,8.824219 0,4.265625 2.9296875,8.777344 7.5585938,8.777344 1.7343751,0 3.3515621,-0.445313 4.8867191,-1.21875 z m 5.25,2.015625 c 0,-2.332031 1.710937,-3.902343 3.890625,-3.949218 v -1.628907 c -1.582032,0.02344 -3.070313,0.808594 -3.960938,2.097657 v -1.980469 h -1.757812 v 10.734375 h 1.828125 z m 13.564453,-1.746093 c 0,-2.320313 -1.652344,-3.9375 -3.890625,-3.9375 -1.089844,0 -2.273438,0.199218 -3.644532,0.996093 l 0.152344,1.628907 c 0.621094,-0.445313 1.6875,-1.160157 3.46875,-1.160157 1.265625,0 2.039063,0.960938 2.039063,2.507813 v 0.9375 c -3.972657,0.128906 -6.445313,1.265625 -6.445313,3.222656 0,1.019531 0.609375,3.023438 2.671875,3.023438 0.375,0 2.378906,-0.04687 3.820313,-1.113282 v 0.914063 h 1.828125 z m -1.875,3.75 c 0,0.445312 0,1.042968 -0.75,1.488281 -0.644532,0.421875 -1.464844,0.46875 -1.804688,0.46875 -1.242187,0 -2.085937,-0.691406 -2.085937,-1.558594 0,-1.734375 3.867187,-1.910156 4.640625,-1.933594 z m 7.473633,2.15625 c 0.820312,0.796875 1.933593,1.3125 3.128906,1.3125 2.308594,0 4.289062,-2.378907 4.289062,-5.554688 0,-2.917969 -1.488281,-5.496094 -3.621093,-5.496094 -1.242188,0 -2.730469,0.445313 -3.84375,1.335938 v -1.136719 h -1.828125 v 15.480469 h 1.875 z m 0,-6.9375 c 0.199218,-0.304688 1.042968,-1.242188 2.414062,-1.242188 1.734375,0 3.117188,1.78125 3.117188,3.9375 0,2.460938 -1.6875,4.042969 -3.351563,4.042969 -0.492187,0 -1.007812,-0.128906 -1.511719,-0.550781 -0.667968,-0.585938 -0.667968,-0.960938 -0.667968,-1.3125 z m 18.392578,0.808593 c 0,-1.558593 -0.375,-3.609375 -3.175782,-3.609375 -1.558593,0 -2.578125,0.761719 -3.292968,1.605469 V 12.686172 H 48.48843 v 17.203125 h 1.875 v -6 c 0,-1.558594 0.597656,-3.339844 2.285156,-3.339844 2.179687,0 2.25,1.453125 2.25,2.296875 v 7.042969 h 1.886719 z m 8.302734,2.636719 V 23.842422 H 58.88882 v 1.441406 z M 75.39175,14.350234 h 2.050781 c 0.304688,0 0.597656,0.02344 0.890625,0.02344 h 3.105469 V 12.768203 H 67.258937 v 1.605469 h 3.09375 c 0.304688,0 0.597657,-0.02344 0.890625,-0.02344 h 2.0625 v 15.539063 h 2.085938 z m 17.039062,8.296875 c 0,-1.558593 -0.375,-3.609375 -3.175781,-3.609375 -1.558594,0 -2.578125,0.761719 -3.292969,1.605469 v -7.957031 h -1.828125 v 17.203125 h 1.875 v -6 c 0,-1.558594 0.597657,-3.339844 2.285157,-3.339844 2.179687,0 2.25,1.453125 2.25,2.296875 v 7.042969 h 1.886718 z m 11.548828,1.816407 c 0,-0.820313 -0.0469,-2.402344 -0.84375,-3.714844 -0.86719,-1.417969 -2.28516,-1.816406 -3.339843,-1.816406 -2.578125,0 -4.769531,2.425781 -4.769531,5.578125 0,3.070312 2.261718,5.578125 5.109374,5.578125 1.11328,0 2.48438,-0.328125 3.71484,-1.21875 0,-0.09375 -0.0469,-0.644532 -0.0703,-0.667969 0,-0.04687 -0.0703,-0.820313 -0.0703,-0.914063 -1.19531,0.960938 -2.55469,1.289063 -3.55078,1.289063 -1.582033,0 -3.292971,-1.335938 -3.363283,-4.113281 z m -6.984374,-1.371094 c 0.316406,-1.359375 1.40625,-2.648438 2.800781,-2.648438 0.363283,0 2.097653,0.04687 2.542973,2.648438 z m 18.609374,1.488281 c 0,-3.164062 -2.35547,-5.648437 -5.13281,-5.648437 -2.84766,0 -5.15625,2.554687 -5.15625,5.648437 0,3.152344 2.3789,5.507813 5.13281,5.507813 2.82422,0 5.15625,-2.425782 5.15625,-5.507813 z m -5.13281,3.949219 c -1.75781,0 -3.26953,-1.441406 -3.26953,-4.148438 0,-2.871093 1.75781,-3.9375 3.24609,-3.9375 1.60547,0 3.26953,1.171875 3.26953,3.9375 0,2.800782 -1.60547,4.148438 -3.24609,4.148438 z m 8.87695,-3.914063 c 0,-2.332031 1.71094,-3.902343 3.89063,-3.949218 v -1.628907 c -1.58204,0.02344 -3.07032,0.808594 -3.96094,2.097657 v -1.980469 h -1.75781 v 10.734375 h 1.82812 z m 13.93945,-0.152343 c 0,-0.820313 -0.0469,-2.402344 -0.84375,-3.714844 -0.86718,-1.417969 -2.28515,-1.816406 -3.33984,-1.816406 -2.57812,0 -4.76953,2.425781 -4.76953,5.578125 0,3.070312 2.26172,5.578125 5.10937,5.578125 1.11329,0 2.48438,-0.328125 3.71485,-1.21875 0,-0.09375 -0.0469,-0.644532 -0.0703,-0.667969 0,-0.04687 -0.0703,-0.820313 -0.0703,-0.914063 -1.19531,0.960938 -2.55468,1.289063 -3.55078,1.289063 -1.58203,0 -3.29297,-1.335938 -3.36328,-4.113281 z m -6.98437,-1.371094 c 0.31641,-1.359375 1.40625,-2.648438 2.80078,-2.648438 0.36328,0 2.09766,0.04687 2.54297,2.648438 z m 11.78613,-2.425781 h 3.22266 v -1.429688 h -3.22266 v -3.058594 h -1.75781 v 3.058594 h -1.95703 v 1.429688 h 1.91015 v 6.269531 c 0,1.417969 0.31641,3.152344 1.95704,3.152344 1.24218,0 2.3789,-0.351563 3.46875,-0.914063 l -0.39844,-1.464844 c -0.59766,0.515625 -1.3125,0.820313 -2.08594,0.820313 -1.08984,0 -1.13672,-1.394531 -1.13672,-2.015625 z m 8.08008,-7.089844 h -2.08594 v 2.085937 h 2.08594 z m -0.12891,5.660156 h -1.82812 v 10.652344 h 1.82812 z m 11.3877,0.761719 c 0,-0.175781 -1.13672,-0.667969 -1.42969,-0.761719 -0.82031,-0.304687 -1.86328,-0.304687 -2.13281,-0.304687 -3.22266,0 -5.15625,2.800781 -5.15625,5.625 0,2.976562 2.15625,5.53125 5.05078,5.53125 1.66406,0 2.84766,-0.550782 3.82031,-1.195313 l -0.15234,-1.628906 c -1.06641,0.820312 -2.29688,1.265625 -3.64453,1.265625 -1.9336,0 -3.1875,-1.6875 -3.1875,-3.996094 0,-1.78125 0.80859,-4.042969 3.29297,-4.042969 1.35937,0 2.13281,0.28125 3.26953,1.042969 z m 22.13672,7.042969 c -1.66406,1.113281 -2.42578,1.429687 -4.44141,1.429687 -3.46875,0 -5.49609,-3.738281 -5.49609,-7.160156 0,-3.644531 2.07422,-7.230469 5.60156,-7.230469 1.58203,0 2.625,0.445313 3.89063,1.230469 l 0.33984,-1.957031 c -1.18359,-0.585938 -2.69531,-0.867188 -4.20703,-0.867188 -4.75781,0 -7.71094,4.394531 -7.71094,8.824219 0,4.886719 3.49219,8.753906 7.46484,8.753906 2.13282,0 2.8711,-0.175781 4.71094,-1.335937 z m 12.29004,-2.460938 c 0,-3.164062 -2.35547,-5.648437 -5.13282,-5.648437 -2.84765,0 -5.15625,2.554687 -5.15625,5.648437 0,3.152344 2.37891,5.507813 5.13282,5.507813 2.82422,0 5.15625,-2.425782 5.15625,-5.507813 z m -5.13282,3.949219 c -1.75781,0 -3.26953,-1.441406 -3.26953,-4.148438 0,-2.871093 1.75782,-3.9375 3.2461,-3.9375 1.60547,0 3.26953,1.171875 3.26953,3.9375 0,2.800782 -1.60547,4.148438 -3.2461,4.148438 z m 15.9668,-5.882813 c 0,-1.558593 -0.375,-3.609375 -3.17578,-3.609375 -1.58203,0 -2.625,0.808594 -3.31641,1.652344 v -1.535156 h -1.80468 v 10.734375 h 1.875 v -6 c 0,-1.558594 0.59765,-3.339844 2.28515,-3.339844 2.17969,0 2.25,1.453125 2.25,2.296875 v 7.042969 h 1.88672 z m 11.39649,-2.648437 c 0,-0.175781 -1.13672,-0.667969 -1.42969,-0.761719 -0.82031,-0.304687 -1.86328,-0.304687 -2.13281,-0.304687 -3.22266,0 -5.15625,2.800781 -5.15625,5.625 0,2.976562 2.15625,5.53125 5.05078,5.53125 1.66406,0 2.84765,-0.550782 3.82031,-1.195313 l -0.15234,-1.628906 c -1.06641,0.820312 -2.29688,1.265625 -3.64454,1.265625 -1.93359,0 -3.1875,-1.6875 -3.1875,-3.996094 0,-1.78125 0.8086,-4.042969 3.29297,-4.042969 1.35938,0 2.13282,0.28125 3.26953,1.042969 z m 10.51171,4.464844 c 0,-0.820313 -0.0469,-2.402344 -0.84375,-3.714844 -0.86718,-1.417969 -2.28515,-1.816406 -3.33984,-1.816406 -2.57812,0 -4.76953,2.425781 -4.76953,5.578125 0,3.070312 2.26172,5.578125 5.10937,5.578125 1.11329,0 2.48438,-0.328125 3.71485,-1.21875 0,-0.09375 -0.0469,-0.644532 -0.0703,-0.667969 0,-0.04687 -0.0703,-0.820313 -0.0703,-0.914063 -1.19531,0.960938 -2.55468,1.289063 -3.55078,1.289063 -1.58203,0 -3.29297,-1.335938 -3.36328,-4.113281 z m -6.98437,-1.371094 c 0.31641,-1.359375 1.40625,-2.648438 2.80078,-2.648438 0.36328,0 2.09766,0.04687 2.54297,2.648438 z m 11.39062,5.683594 c 0.82032,0.796875 1.9336,1.3125 3.12891,1.3125 2.30859,0 4.28906,-2.378907 4.28906,-5.554688 0,-2.917969 -1.48828,-5.496094 -3.62109,-5.496094 -1.24219,0 -2.73047,0.445313 -3.84375,1.335938 v -1.136719 h -1.82813 v 15.480469 h 1.875 z m 0,-6.9375 c 0.19922,-0.304688 1.04297,-1.242188 2.41407,-1.242188 1.73437,0 3.11718,1.78125 3.11718,3.9375 0,2.460938 -1.6875,4.042969 -3.35156,4.042969 -0.49219,0 -1.00781,-0.128906 -1.51172,-0.550781 -0.66797,-0.585938 -0.66797,-0.960938 -0.66797,-1.3125 z m 12.39258,-1.171875 h 3.22266 v -1.429688 h -3.22266 v -3.058594 h -1.75781 v 3.058594 h -1.95703 v 1.429688 h 1.91016 v 6.269531 c 0,1.417969 0.3164,3.152344 1.95703,3.152344 1.24218,0 2.3789,-0.351563 3.46875,-0.914063 l -0.39844,-1.464844 c -0.59766,0.515625 -1.3125,0.820313 -2.08594,0.820313 -1.08984,0 -1.13672,-1.394531 -1.13672,-2.015625 z m 12.26074,-0.984375 c -1.46484,-0.703125 -2.60156,-0.75 -3.33984,-0.75 -1.76953,0 -3.86719,0.621093 -3.86719,3.128906 0,2.496094 2.71875,3.046875 3.46875,3.1875 1.13672,0.234375 2.40235,0.480469 2.40235,1.710937 0,1.570313 -1.78125,1.570313 -2.10938,1.570313 -0.99609,0 -2.35547,-0.28125 -3.59765,-1.171875 l -0.29297,1.664062 c 1.41797,0.820313 2.77734,1.066407 3.91406,1.066407 3.04687,0 3.82031,-1.863282 3.82031,-3.269532 0,-1.21875 -0.6914,-2.039062 -1.17187,-2.402343 -0.8086,-0.644532 -1.11328,-0.726563 -3.14063,-1.148438 -0.35156,-0.04687 -1.55859,-0.316406 -1.55859,-1.429687 0,-1.417969 1.55859,-1.417969 1.89844,-1.417969 1.61718,0 2.61328,0.492187 3.28125,0.867187 z M 3.7960469,43.462539 H 1.7101094 v 2.085938 h 2.0859375 z m -0.1289063,5.660156 h -1.828125 v 10.652344 h 1.828125 z m 11.9882814,3.410157 c 0,-1.558594 -0.375,-3.609375 -3.175781,-3.609375 -1.582032,0 -2.6250004,0.808593 -3.3164066,1.652343 V 49.040664 H 7.3585469 v 10.734375 h 1.875 v -6 c 0,-1.558594 0.5976562,-3.339844 2.2851561,-3.339844 2.179688,0 2.25,1.453125 2.25,2.296875 v 7.042969 h 1.886719 z m 23.173828,4.394531 c -1.664063,1.113281 -2.425781,1.429687 -4.441406,1.429687 -3.46875,0 -5.496094,-3.738281 -5.496094,-7.160156 0,-3.644531 2.074219,-7.230469 5.601562,-7.230469 1.582032,0 2.625,0.445313 3.890625,1.230469 l 0.339844,-1.957031 c -1.183594,-0.585938 -2.695312,-0.867188 -4.207031,-0.867188 -4.757813,0 -7.710938,4.394532 -7.710938,8.824219 0,4.886719 3.492188,8.753906 7.464844,8.753906 2.132813,0 2.871094,-0.175781 4.710938,-1.335937 z m 12.290039,-2.460938 c 0,-3.164062 -2.355469,-5.648437 -5.132812,-5.648437 -2.847657,0 -5.15625,2.554687 -5.15625,5.648437 0,3.152344 2.378906,5.507813 5.132812,5.507813 2.824219,0 5.15625,-2.425781 5.15625,-5.507813 z m -5.132812,3.949219 c -1.757813,0 -3.269532,-1.441406 -3.269532,-4.148437 0,-2.871094 1.757813,-3.9375 3.246094,-3.9375 1.605469,0 3.269531,1.171875 3.269531,3.9375 0,2.800781 -1.605468,4.148437 -3.246093,4.148437 z m 22.435546,-5.882812 c 0,-1.652344 -0.421875,-3.609375 -3.199218,-3.609375 -1.851563,0 -2.976563,1.160156 -3.46875,1.875 -0.445313,-1.3125 -1.488282,-1.875 -2.976563,-1.875 -1.6875,0 -2.742187,0.960937 -3.316406,1.652343 v -1.535156 h -1.804688 v 10.734375 h 1.875 v -6 c 0,-1.464844 0.550782,-3.339844 2.308594,-3.339844 2.25,0 2.25,1.582032 2.25,2.296875 v 7.042969 h 1.886719 v -6 c 0,-1.464844 0.550781,-3.339844 2.308594,-3.339844 2.25,0 2.25,1.582032 2.25,2.296875 v 7.042969 h 1.886718 z m 5.601563,6.128906 c 0.820312,0.796875 1.933594,1.3125 3.128906,1.3125 2.308594,0 4.289063,-2.378906 4.289063,-5.554688 0,-2.917968 -1.488282,-5.496093 -3.621094,-5.496093 -1.242188,0 -2.730469,0.445312 -3.84375,1.335937 v -1.136719 h -1.828125 v 15.480469 h 1.875 z m 0,-6.9375 c 0.199219,-0.304688 1.042969,-1.242188 2.414062,-1.242188 1.734375,0 3.117188,1.78125 3.117188,3.9375 0,2.460938 -1.6875,4.042969 -3.351563,4.042969 -0.492187,0 -1.007812,-0.128906 -1.511718,-0.550781 -0.667969,-0.585938 -0.667969,-0.960938 -0.667969,-1.3125 z m 18.392578,-2.601563 h -1.886719 v 6.832032 c 0,1.839843 -1.335937,2.578125 -2.742187,2.578125 -1.640625,0 -1.792969,-0.539063 -1.792969,-1.558594 v -7.851563 h -1.875 v 7.980469 c 0,1.933594 0.667969,2.871094 2.378906,2.871094 0.832032,0 2.742188,-0.199219 4.089844,-1.441406 v 1.242187 h 1.828125 z m 5.99707,1.429688 h 3.222656 v -1.429688 h -3.222656 v -3.058593 h -1.757812 v 3.058593 h -1.957031 v 1.429688 h 1.910156 v 6.269531 c 0,1.417969 0.316406,3.152344 1.957031,3.152344 1.242188,0 2.378902,-0.351563 3.468752,-0.914063 l -0.39844,-1.464843 c -0.59766,0.515625 -1.3125,0.820312 -2.085937,0.820312 -1.089844,0 -1.136719,-1.394531 -1.136719,-2.015625 z m 13.971676,3.796875 c 0,-0.820313 -0.0469,-2.402344 -0.84375,-3.714844 -0.86718,-1.417969 -2.28515,-1.816406 -3.33984,-1.816406 -2.57812,0 -4.76953,2.425781 -4.76953,5.578125 0,3.070312 2.26172,5.578125 5.10937,5.578125 1.11329,0 2.48438,-0.328125 3.71485,-1.21875 0,-0.09375 -0.0469,-0.644531 -0.0703,-0.667969 0,-0.04687 -0.0703,-0.820312 -0.0703,-0.914062 -1.19531,0.960937 -2.55468,1.289062 -3.55078,1.289062 -1.58203,0 -3.29297,-1.335937 -3.36328,-4.113281 z m -6.98437,-1.371094 c 0.31641,-1.359375 1.40625,-2.648437 2.80078,-2.648437 0.36328,0 2.09766,0.04687 2.54297,2.648437 z m 11.34375,1.523438 c 0,-2.332032 1.71094,-3.902344 3.89062,-3.949219 v -1.628906 c -1.58203,0.02344 -3.07031,0.808593 -3.96093,2.097656 v -1.980469 h -1.75782 v 10.734375 h 1.82813 z m 22.85742,-11.109375 c -1.08984,-0.644532 -2.27344,-1.21875 -4.28906,-1.21875 -3.1875,0 -5.25,2.355468 -5.25,4.757812 0,0.949219 0.26953,2.015625 1.24219,3.105469 0.96093,1.089844 2.05078,1.382812 3.44531,1.734375 0.5625,0.152344 1.53515,0.421875 1.71094,0.492187 1.38281,0.550782 2.05078,1.816407 2.05078,3 0,1.558594 -1.20703,3.222657 -3.36328,3.222657 -0.75,0 -2.92969,-0.128907 -4.99219,-2.003907 l -0.33985,1.957032 c 2.02735,1.488281 4.23047,1.734375 5.35547,1.734375 3.04688,0 5.22657,-2.402344 5.22657,-5.132813 0,-0.996094 -0.29297,-2.25 -1.33594,-3.421875 -1.01953,-1.113281 -1.91016,-1.359375 -3.94922,-1.910156 -1.16016,-0.292969 -1.89844,-0.492188 -2.51953,-1.265625 -0.42188,-0.539063 -0.64453,-1.066406 -0.64453,-1.734375 0,-1.382813 1.18359,-2.894531 3.36328,-2.894531 1.08984,0 2.50781,0.222656 3.94922,1.558593 z m 11.66016,6.492187 c 0,-0.175781 -1.13672,-0.667969 -1.42969,-0.761719 -0.82031,-0.304687 -1.86328,-0.304687 -2.13281,-0.304687 -3.22266,0 -5.15625,2.800781 -5.15625,5.625 0,2.976562 2.15625,5.53125 5.05078,5.53125 1.66406,0 2.84765,-0.550781 3.82031,-1.195313 l -0.15234,-1.628906 c -1.06641,0.820313 -2.29688,1.265625 -3.64453,1.265625 -1.9336,0 -3.1875,-1.6875 -3.1875,-3.996094 0,-1.78125 0.80859,-4.042968 3.29296,-4.042968 1.35938,0 2.13282,0.28125 3.26954,1.042968 z m 4.61718,-6.421875 h -2.08593 v 2.085938 h 2.08593 z m -0.1289,5.660156 h -1.82813 v 10.652344 h 1.82813 z m 11.54004,5.226563 c 0,-0.820313 -0.0469,-2.402344 -0.84375,-3.714844 -0.86719,-1.417969 -2.28516,-1.816406 -3.33985,-1.816406 -2.57812,0 -4.76953,2.425781 -4.76953,5.578125 0,3.070312 2.26172,5.578125 5.10938,5.578125 1.11328,0 2.48437,-0.328125 3.71484,-1.21875 0,-0.09375 -0.0469,-0.644531 -0.0703,-0.667969 0,-0.04687 -0.0703,-0.820312 -0.0703,-0.914062 -1.19532,0.960937 -2.55469,1.289062 -3.55079,1.289062 -1.58203,0 -3.29296,-1.335937 -3.36328,-4.113281 z m -6.98438,-1.371094 c 0.31641,-1.359375 1.40625,-2.648437 2.80078,-2.648437 0.36328,0 2.09766,0.04687 2.54297,2.648437 z m 17.78906,-0.445312 c 0,-1.558594 -0.375,-3.609375 -3.17578,-3.609375 -1.58203,0 -2.625,0.808593 -3.3164,1.652343 V 49.040664 H 169.798 v 10.734375 h 1.875 v -6 c 0,-1.558594 0.59766,-3.339844 2.28516,-3.339844 2.17968,0 2.25,1.453125 2.25,2.296875 v 7.042969 h 1.88671 z m 11.39649,-2.648438 c 0,-0.175781 -1.13672,-0.667969 -1.42969,-0.761719 -0.82031,-0.304687 -1.86328,-0.304687 -2.13281,-0.304687 -3.22266,0 -5.15625,2.800781 -5.15625,5.625 0,2.976562 2.15625,5.53125 5.05078,5.53125 1.66406,0 2.84766,-0.550781 3.82031,-1.195313 l -0.15234,-1.628906 c -1.06641,0.820313 -2.29688,1.265625 -3.64453,1.265625 -1.9336,0 -3.1875,-1.6875 -3.1875,-3.996094 0,-1.78125 0.80859,-4.042968 3.29297,-4.042968 1.35937,0 2.13281,0.28125 3.26953,1.042968 z m 10.51172,4.464844 c 0,-0.820313 -0.0469,-2.402344 -0.84375,-3.714844 -0.86719,-1.417969 -2.28516,-1.816406 -3.33985,-1.816406 -2.57812,0 -4.76953,2.425781 -4.76953,5.578125 0,3.070312 2.26172,5.578125 5.10938,5.578125 1.11328,0 2.48437,-0.328125 3.71484,-1.21875 0,-0.09375 -0.0469,-0.644531 -0.0703,-0.667969 0,-0.04687 -0.0703,-0.820312 -0.0703,-0.914062 -1.19532,0.960937 -2.55469,1.289062 -3.55078,1.289062 -1.58204,0 -3.29297,-1.335937 -3.36329,-4.113281 z m -6.98438,-1.371094 c 0.31641,-1.359375 1.40625,-2.648437 2.80078,-2.648437 0.36329,0 2.09766,0.04687 2.54297,2.648437 z m 0,0"
         style="fill:#000000;fill-opacity:1;fill-rule:nonzero;stroke:none" />
      <path
         id="path7"
         d="m 47.090969,130.21645 c 0,-0.25782 0,-0.28125 -0.257813,-0.28125 -0.667969,0.70312 -1.628906,0.70312 -1.980469,0.70312 v 0.32813 c 0.210938,0 0.855469,0 1.429688,-0.28125 v 5.64843 c 0,0.39844 -0.03516,0.52735 -1.019531,0.52735 h -0.351563 v 0.33984 c 0.386719,-0.0352 1.335938,-0.0352 1.769531,-0.0352 0.445313,0 1.394532,0 1.769532,0.0352 v -0.33984 h -0.351563 c -0.972656,0 -1.007812,-0.11719 -1.007812,-0.52735 z m 0,0"
         style="fill:#000000;fill-opacity:1;fill-rule:nonzero;stroke:none" />
    </g>
  </g>
</svg>
